<svg xmlns="http://www.w3.org/2000/svg" xmlns:xlink="http://www.w3.org/1999/xlink" viewBox="0 0 133 153.15"><defs><style>.cls-1{fill:url(#New_Gradient_Swatch);}.cls-2{fill:#fff;}</style><linearGradient id="New_Gradient_Swatch" x1="66.5" y1="153.15" x2="66.5" gradientUnits="userSpaceOnUse"><stop offset="0" stop-color="#9bb058"/><stop offset="1" stop-color="#899e4a"/></linearGradient></defs><title>icon</title><g id="Layer_2" data-name="Layer 2"><g id="Layer_1-2" data-name="Layer 1"><g id="Layer_2-2" data-name="Layer 2"><g id="Layer_1-2-2" data-name="Layer 1-2"><g id="Layer_2-2-2" data-name="Layer 2-2"><g id="Layer_1-2-2-2" data-name="Layer 1-2-2"><polygon class="cls-1" points="66.5 153.15 0 114.86 0 38.29 66.5 0 133 38.29 133 114.86 66.5 153.15"/><path class="cls-2" d="M41.92,88.48a39.8,39.8,0,0,1,0-21.88,43.3,43.3,0,0,1,4.51-10l3.89,1.65a35.38,35.38,0,0,0-3.69,9.25,42,42,0,0,0,0,20.05,35.39,35.39,0,0,0,3.69,9.25l-3.89,1.65A43.3,43.3,0,0,1,41.92,88.48Z"/><path class="cls-2" d="M57.41,89.67a4.34,4.34,0,0,1,0-5.76,3.87,3.87,0,0,1,5.47,0l0,0a4.34,4.34,0,0,1,0,5.76,3.87,3.87,0,0,1-5.47,0Z"/><path class="cls-2" d="M64,71.81l2.66-4.62L61.76,65l1-3.11L68,63l.55-5.31h3.34L72.43,63l5.17-1.15L78.66,65l-4.91,2.2,2.7,4.62-2.65,2-3.57-4.07L66.6,73.78Z"/><path class="cls-2" d="M82.68,96.81a35.41,35.41,0,0,0,3.69-9.25,42,42,0,0,0,0-20.05,35.41,35.41,0,0,0-3.69-9.25l3.89-1.65a43.35,43.35,0,0,1,4.5,10,39.8,39.8,0,0,1,0,21.88,43.35,43.35,0,0,1-4.51,10Z"/></g></g></g></g></g></g></svg>