<svg xmlns="http://www.w3.org/2000/svg" viewBox="0 0 623.54 718"><defs><style>.cls-1{fill:#9bb058;}.cls-2{isolation:isolate;}.cls-3{fill:#fff;}</style></defs><title>logo_2</title><g id="Layer_2" data-name="Layer 2"><g id="Layer_1-2" data-name="Layer 1"><g id="Layer_2-2" data-name="Layer 2"><g id="Layer_1-2-2" data-name="Layer 1-2"><polygon class="cls-1" points="311.77 718 0 538.5 0 179.5 311.77 0 623.54 179.5 623.54 538.5 311.77 718"/><g class="cls-2"><g class="cls-2"><path class="cls-3" d="M196.51,414.81a186.6,186.6,0,0,1,0-102.6,203,203,0,0,1,21.14-46.79l18.25,7.73a165.89,165.89,0,0,0-17.28,43.36,197.09,197.09,0,0,0,0,94,165.9,165.9,0,0,0,17.28,43.36l-18.25,7.73A203,203,0,0,1,196.51,414.81Z"/></g><g class="cls-2"><path class="cls-3" d="M269.16,420.39a20.33,20.33,0,0,1,0-27,18.14,18.14,0,0,1,25.76,0,20.33,20.33,0,0,1,0,27,18.14,18.14,0,0,1-25.76,0Z"/></g><g class="cls-2"><path class="cls-3" d="M299.86,336.68,312.31,315l-22.75-10.3,4.72-14.6,24.47,5.15,2.58-24.9H337l2.58,25.11,24.25-5.37,4.94,14.6-23,10.3,12.66,21.68L346,345.91l-16.74-19.1-17,19.1Z"/><path class="cls-3" d="M387.64,453.87a166,166,0,0,0,17.28-43.36,197.07,197.07,0,0,0,0-94,166,166,0,0,0-17.28-43.36l18.25-7.73A203.23,203.23,0,0,1,427,312.21a186.6,186.6,0,0,1,0,102.6,203.25,203.25,0,0,1-21.14,46.79Z"/></g></g></g></g></g></g></svg>