<svg xmlns="http://www.w3.org/2000/svg" xmlns:xlink="http://www.w3.org/1999/xlink" viewBox="0 0 429.3 97.88"><defs><style>.cls-1{fill:url(#New_Gradient_Swatch);}.cls-2{fill:#fff;}</style><linearGradient id="New_Gradient_Swatch" x1="42.5" y1="97.88" x2="42.5" gradientUnits="userSpaceOnUse"><stop offset="0" stop-color="#9bb058"/><stop offset="1" stop-color="#899e4a"/></linearGradient></defs><title>logo_2</title><g id="Layer_2" data-name="Layer 2"><g id="Layer_1-2" data-name="Layer 1"><g id="Layer_2-2" data-name="Layer 2"><g id="Layer_1-2-2" data-name="Layer 1-2"><g id="Layer_2-2-2" data-name="Layer 2-2"><g id="Layer_1-2-2-2" data-name="Layer 1-2-2"><polygon class="cls-1" points="42.5 97.88 0 73.41 0 24.47 42.5 0 85 24.47 85 73.41 42.5 97.88"/><path class="cls-2" d="M26.79,56.55a25.44,25.44,0,0,1,0-14,27.67,27.67,0,0,1,2.88-6.38l2.49,1.05a22.61,22.61,0,0,0-2.36,5.91A26.87,26.87,0,0,0,29.8,56a22.62,22.62,0,0,0,2.36,5.91l-2.49,1.05A27.67,27.67,0,0,1,26.79,56.55Z"/><path class="cls-2" d="M36.69,57.31a2.77,2.77,0,0,1,0-3.68,2.47,2.47,0,0,1,3.5,0h0a2.77,2.77,0,0,1,0,3.68,2.47,2.47,0,0,1-3.5,0Z"/><path class="cls-2" d="M40.88,45.9l1.7-3-3.1-1.4.64-2,3.34.7.35-3.39h2.14l.35,3.42,3.31-.73.67,2-3.14,1.4,1.73,3-1.69,1.26-2.28-2.6-2.32,2.6Z"/><path class="cls-2" d="M52.84,61.87A22.63,22.63,0,0,0,55.2,56a26.86,26.86,0,0,0,0-12.81,22.63,22.63,0,0,0-2.36-5.91l2.49-1.05a27.7,27.7,0,0,1,2.88,6.38,25.44,25.44,0,0,1,0,14,27.71,27.71,0,0,1-2.88,6.38Z"/></g></g></g></g><path d="M107.82,22.82a65.26,65.26,0,0,1,12-1c6.7,0,11,1.22,14,4A12.09,12.09,0,0,1,137.71,35c0,6.41-4,10.66-9.14,12.39v.22c3.74,1.3,6,4.75,7.13,9.79,1.58,6.77,2.74,11.45,3.74,13.32H133c-.79-1.37-1.87-5.54-3.24-11.59-1.44-6.7-4-9.22-9.72-9.43h-5.9v21h-6.26Zm6.26,22.11h6.41c6.7,0,10.94-3.67,10.94-9.22,0-6.26-4.54-9-11.16-9.07a25.77,25.77,0,0,0-6.19.58Z"/><path d="M150.16,54.43c.14,8.57,5.62,12.1,12,12.1a22.91,22.91,0,0,0,9.65-1.8l1.08,4.54a28.24,28.24,0,0,1-11.59,2.16c-10.73,0-17.14-7.06-17.14-17.57s6.19-18.79,16.35-18.79c11.38,0,14.4,10,14.4,16.42a24,24,0,0,1-.22,3Zm18.58-4.54c.07-4-1.66-10.3-8.78-10.3-6.41,0-9.22,5.9-9.72,10.3Z"/><path d="M212.73,35.86c-.14,2.52-.29,5.33-.29,9.58V65.67c0,8-1.58,12.89-5,15.91s-8.28,4.18-12.67,4.18c-4.18,0-8.78-1-11.59-2.88l1.58-4.82A19.65,19.65,0,0,0,195,80.79c6.48,0,11.23-3.38,11.23-12.17V64.73h-.14c-1.94,3.24-5.69,5.83-11.09,5.83-8.64,0-14.83-7.34-14.83-17,0-11.81,7.7-18.51,15.7-18.51,6,0,9.36,3.17,10.87,6h.14l.29-5.26Zm-6.55,13.75a9,9,0,0,0-.36-2.88A9.13,9.13,0,0,0,197,40c-6,0-10.37,5.11-10.37,13.18,0,6.84,3.46,12.53,10.3,12.53a9.26,9.26,0,0,0,8.78-6.48,11,11,0,0,0,.5-3.38Z"/><path d="M226.48,54.43c.14,8.57,5.62,12.1,12,12.1a22.91,22.91,0,0,0,9.65-1.8l1.08,4.54a28.24,28.24,0,0,1-11.59,2.16c-10.73,0-17.14-7.06-17.14-17.57s6.19-18.79,16.35-18.79c11.38,0,14.4,10,14.4,16.42a24,24,0,0,1-.22,3Zm18.58-4.54c.07-4-1.66-10.3-8.78-10.3-6.41,0-9.22,5.9-9.72,10.3Z"/><path d="M261.76,35.86l5,7.49c1.3,1.94,2.38,3.74,3.53,5.69h.22c1.15-2.09,2.3-3.89,3.46-5.76l4.9-7.42h6.84L273.78,52.7l12.24,18h-7.2l-5.11-7.85c-1.37-2-2.52-4-3.74-6h-.14c-1.15,2.09-2.38,4-3.67,6l-5,7.85h-7l12.38-17.79L254.7,35.86Z"/><path d="M300.28,70.71,288,22.17h6.62l5.76,24.55c1.44,6,2.74,12.1,3.6,16.78h.14c.79-4.82,2.3-10.58,4-16.85l6.48-24.48h6.55L327,46.8c1.37,5.76,2.66,11.52,3.38,16.63h.14c1-5.33,2.38-10.73,3.89-16.78l6.41-24.48h6.41L333.47,70.71h-6.55L320.8,45.43a146.08,146.08,0,0,1-3.17-15.84h-.14a151.46,151.46,0,0,1-3.74,15.84l-6.91,25.27Z"/><path d="M370,70.71l-.5-4.39h-.22A13,13,0,0,1,358.6,71.5c-7.06,0-10.66-5-10.66-10,0-8.42,7.49-13,21-13v-.72c0-2.88-.79-8.06-7.92-8.06a17.37,17.37,0,0,0-9.07,2.59l-1.44-4.18a21.63,21.63,0,0,1,11.45-3.1c10.66,0,13.25,7.27,13.25,14.26v13a49.11,49.11,0,0,0,.58,8.35ZM369,52.92c-6.91-.14-14.76,1.08-14.76,7.85,0,4.1,2.74,6,6,6A8.67,8.67,0,0,0,368.68,61a6.6,6.6,0,0,0,.36-2Z"/><path d="M385.38,46.73c0-4.1-.07-7.63-.29-10.87h5.54l.22,6.84h.29c1.58-4.68,5.4-7.63,9.65-7.63a6.85,6.85,0,0,1,1.8.22v6a9.52,9.52,0,0,0-2.16-.22c-4.46,0-7.63,3.38-8.5,8.14a17.83,17.83,0,0,0-.29,3V70.71h-6.26Z"/><path d="M408.06,64.23a16.6,16.6,0,0,0,8.35,2.52c4.61,0,6.77-2.3,6.77-5.18s-1.8-4.68-6.48-6.41c-6.26-2.23-9.22-5.69-9.22-9.86,0-5.62,4.54-10.23,12-10.23a17.4,17.4,0,0,1,8.57,2.16l-1.58,4.61a13.56,13.56,0,0,0-7.13-2c-3.74,0-5.83,2.16-5.83,4.75,0,2.88,2.09,4.18,6.62,5.9,6,2.3,9.15,5.33,9.15,10.51,0,6.12-4.75,10.44-13,10.44a19.87,19.87,0,0,1-9.79-2.38Z"/></g></g></svg>